<svg width="155" height="41" viewBox="0 0 155 41" fill="none" xmlns="http://www.w3.org/2000/svg">
<path d="M26.0973 25.7306L21.3327 12.1405L16.568 25.7306H26.0973ZM28.9128 33.798H13.7525L11.3161 40.8909H0L15.5393 0.0664062H27.1261L42.6654 40.8909H31.3493L28.9128 33.798Z" fill="white"/>
<path d="M57.9208 18.8002H61.4402C65.3385 18.8002 67.2877 17.1037 67.2877 13.7107C67.2877 10.3176 65.3385 8.62113 61.4402 8.62113H57.9208V18.8002ZM57.9208 40.8909H47.3086V0.0664062H64.2015C68.7857 0.0664062 72.287 1.25757 74.7054 3.6399C77.1599 6.02223 78.3872 9.37915 78.3872 13.7107C78.3872 18.0422 77.1599 21.3991 74.7054 23.7814C72.287 26.1637 68.7857 27.3549 64.2015 27.3549H57.9208V40.8909Z" fill="white"/>
<path d="M107.231 9.05429H94.616V15.8764H106.528V24.8643H94.616V31.903H107.231V40.8909H84.0038V0.0664062H107.231V9.05429Z" fill="white"/>
<path d="M126.578 19.125L113.854 0.0664062H126.957L132.479 10.6245L139.302 0.0664062H152.404L138.923 19.125L154.137 40.8909H141.197L133.021 27.5715L123.437 40.8909H110.605L126.578 19.125Z" fill="white"/>
</svg>
