<svg width="153" height="14" viewBox="0 0 153 14" fill="none" xmlns="http://www.w3.org/2000/svg">
<path d="M0.408005 13.1957V1.08304H7.88696V2.30244H1.70869V6.51342H7.3992V7.73281H1.70869V13.1957H0.408005Z" fill="white"/>
<path d="M9.85514 13.1957V1.08304H17.6593V2.30244H11.1558V6.51342H17.3341V7.73281H11.1558V11.9763H17.6593V13.1957H9.85514Z" fill="white"/>
<path d="M19.8104 13.1957V1.08304H20.9485L28.0535 11.2772H27.6145V1.08304H28.9152V13.1957H27.7771L20.6721 2.93652H21.111V13.1957H19.8104Z" fill="white"/>
<path d="M37.3099 13.3908C36.4537 13.3908 35.6678 13.2391 34.9524 12.9356C34.2371 12.6212 33.6138 12.1877 33.0827 11.6349C32.5624 11.0712 32.156 10.4101 31.8633 9.65133C31.5707 8.89259 31.4243 8.05798 31.4243 7.1475C31.4243 6.23702 31.5707 5.40241 31.8633 4.64368C32.156 3.88494 32.5624 3.22376 33.0827 2.66013C33.6138 2.0965 34.2371 1.66293 34.9524 1.35944C35.6678 1.04511 36.4537 0.887939 37.3099 0.887939C38.1337 0.887939 38.8708 1.03427 39.5211 1.32692C40.1823 1.61958 40.7351 1.99894 41.1795 2.46502C41.6347 2.92026 41.9599 3.4026 42.155 3.91204L40.9356 4.44857C40.6321 3.74403 40.166 3.1804 39.5374 2.75768C38.9195 2.32412 38.1771 2.10733 37.3099 2.10733C36.4211 2.10733 35.6299 2.3187 34.9362 2.74142C34.2425 3.16414 33.7005 3.75487 33.3103 4.51361C32.9201 5.2615 32.725 6.13947 32.725 7.1475C32.725 8.1447 32.9201 9.02266 33.3103 9.78139C33.7005 10.5401 34.2425 11.1309 34.9362 11.5536C35.6299 11.9655 36.4211 12.1714 37.3099 12.1714C38.1771 12.1714 38.9195 11.96 39.5374 11.5373C40.166 11.1146 40.6321 10.551 40.9356 9.84643L42.155 10.383C41.9599 10.8816 41.6347 11.3639 41.1795 11.83C40.7351 12.2852 40.1823 12.6592 39.5211 12.9518C38.8708 13.2445 38.1337 13.3908 37.3099 13.3908Z" fill="white"/>
<path d="M44.4841 13.1957V1.08304H45.7847V13.1957H44.4841Z" fill="white"/>
<path d="M48.644 13.1957V1.08304H49.7821L56.8871 11.2772H56.4481V1.08304H57.7488V13.1957H56.6107L49.5057 2.93652H49.9447V13.1957H48.644Z" fill="white"/>
<path d="M66.1436 13.3908C65.2873 13.3908 64.5014 13.2391 63.7861 12.9356C63.0707 12.6212 62.4474 12.1877 61.9163 11.6349C61.396 11.0712 60.9896 10.4101 60.6969 9.65133C60.4043 8.89259 60.2579 8.05798 60.2579 7.1475C60.2579 6.23702 60.4043 5.40241 60.6969 4.64368C60.9896 3.88494 61.396 3.22376 61.9163 2.66013C62.4474 2.0965 63.0707 1.66293 63.7861 1.35944C64.5014 1.04511 65.2873 0.887939 66.1436 0.887939C66.9673 0.887939 67.7044 1.03427 68.3547 1.32692C69.0159 1.61958 69.5687 1.99894 70.0131 2.46502C70.4683 2.92026 70.7935 3.4026 70.9886 3.91204L69.818 4.48109C69.5145 3.74403 69.0484 3.16414 68.4198 2.74142C67.7911 2.3187 67.0324 2.10733 66.1436 2.10733C65.2548 2.10733 64.4635 2.3187 63.7698 2.74142C63.0761 3.16414 62.5341 3.75487 62.1439 4.51361C61.7537 5.2615 61.5586 6.13947 61.5586 7.1475C61.5586 8.1447 61.7537 9.02266 62.1439 9.78139C62.5341 10.5401 63.0761 11.1309 63.7698 11.5536C64.4635 11.9655 65.2548 12.1714 66.1436 12.1714C66.9348 12.1714 67.6448 11.998 68.2734 11.6511C68.9129 11.3043 69.417 10.8328 69.7855 10.2366C70.154 9.62965 70.3383 8.93595 70.3383 8.15553V7.48893L70.9236 8.07424H66.1436V6.93614H71.639V7.94417C71.639 8.73542 71.4981 9.46706 71.2162 10.1391C70.9344 10.8003 70.5442 11.3747 70.0456 11.8625C69.547 12.3503 68.9617 12.7296 68.2897 13.0006C67.6285 13.2607 66.9131 13.3908 66.1436 13.3908Z" fill="white"/>
<path d="M79.5928 13.3908C78.9425 13.3908 78.3626 13.2662 77.8532 13.0169C77.3438 12.7676 76.9427 12.4153 76.65 11.96C76.3574 11.5048 76.2111 10.9737 76.2111 10.3667C76.2111 9.84643 76.3086 9.38577 76.5037 8.98472C76.6988 8.58368 76.9373 8.23683 77.2191 7.94417C77.5117 7.64068 77.8044 7.38596 78.0971 7.18002C78.4006 6.97408 78.6553 6.80607 78.8612 6.676L79.7067 6.15573C80.0102 5.97146 80.3082 5.76552 80.6009 5.5379C80.9044 5.29944 81.1537 5.02846 81.3488 4.72497C81.5547 4.41064 81.6577 4.06379 81.6577 3.68442C81.6577 3.22918 81.5059 2.84981 81.2025 2.54632C80.899 2.24282 80.5196 2.09108 80.0644 2.09108C79.5983 2.09108 79.2135 2.24282 78.91 2.54632C78.6173 2.84981 78.471 3.2346 78.471 3.70068C78.471 4.00417 78.5415 4.30225 78.6824 4.5949C78.8341 4.88755 79.0184 5.16937 79.2352 5.44035C79.4628 5.70049 79.6958 5.9552 79.9343 6.2045L86.6003 13.1957H84.8606L78.91 7.04995C78.6499 6.77897 78.3843 6.4809 78.1133 6.15573C77.8532 5.81972 77.631 5.45661 77.4467 5.0664C77.2625 4.66535 77.1703 4.22637 77.1703 3.74945C77.1703 3.18582 77.3004 2.69264 77.5605 2.26992C77.8207 1.83636 78.1675 1.50035 78.6011 1.26189C79.0455 1.01259 79.5332 0.887939 80.0644 0.887939C80.5846 0.887939 81.0615 1.00717 81.4951 1.24563C81.9287 1.48409 82.2755 1.81468 82.5357 2.2374C82.7958 2.66013 82.9259 3.14247 82.9259 3.68442C82.9259 4.25889 82.7904 4.76291 82.5194 5.19647C82.2593 5.61919 81.9395 5.9823 81.5602 6.2858C81.1808 6.58929 80.8285 6.84401 80.5033 7.04995L79.6904 7.55397C79.3978 7.73823 79.0888 7.96043 78.7637 8.22057C78.4385 8.46987 78.1621 8.76794 77.9345 9.11479C77.7069 9.4508 77.593 9.85727 77.593 10.3342C77.593 10.9195 77.7827 11.3747 78.1621 11.6999C78.5415 12.0251 79.0292 12.1877 79.6254 12.1877C80.0156 12.1877 80.3624 12.1226 80.6659 11.9926C80.9694 11.8625 81.2404 11.6945 81.4789 11.4885C81.7173 11.2718 81.9341 11.0333 82.1292 10.7732C82.3243 10.5022 82.5086 10.2366 82.682 9.9765L84.5517 7.19628H86.0313L83.8526 10.513C83.6792 10.784 83.4678 11.0875 83.2185 11.4235C82.9692 11.7487 82.6766 12.063 82.3406 12.3665C82.0045 12.6592 81.6089 12.903 81.1537 13.0981C80.7093 13.2933 80.189 13.3908 79.5928 13.3908Z" fill="white"/>
<path d="M91.4339 13.1957V1.08304H95.5961C96.3874 1.08304 97.0811 1.24021 97.6772 1.55454C98.2734 1.85804 98.7341 2.2916 99.0592 2.85523C99.3952 3.40802 99.5632 4.05295 99.5632 4.79C99.5632 5.64629 99.3356 6.37793 98.8804 6.98491C98.436 7.5919 97.829 8.02005 97.0594 8.26934L99.8884 13.1957H98.3601L95.401 7.97669L96.279 8.48071H92.7346V13.1957H91.4339ZM92.7346 7.26131H95.6612C96.1814 7.26131 96.6367 7.16376 97.0269 6.96866C97.4171 6.76271 97.7206 6.47548 97.9374 6.10695C98.1542 5.72758 98.2626 5.28318 98.2626 4.77375C98.2626 4.26431 98.1542 3.82533 97.9374 3.4568C97.7206 3.08827 97.4171 2.80645 97.0269 2.61135C96.6367 2.40541 96.1814 2.30244 95.6612 2.30244H92.7346V7.26131Z" fill="white"/>
<path d="M100.598 13.1957L105.02 1.08304H106.418L110.841 13.1957H109.475L108.434 10.2366H103.02L101.963 13.1957H100.598ZM103.443 9.01724H107.979L105.524 2.05856H105.914L103.443 9.01724Z" fill="white"/>
<path d="M112.456 13.1957V1.08304H113.756V13.1957H112.456Z" fill="white"/>
<path d="M116.616 13.1957V1.08304H117.916V11.9763H123.282V13.1957H116.616Z" fill="white"/>
<path d="M125.253 13.1957V1.08304H126.554V13.1957H125.253Z" fill="white"/>
<path d="M129.413 13.1957V1.08304H130.551L137.656 11.2772H137.217V1.08304H138.518V13.1957H137.38L130.275 2.93652H130.714V13.1957H129.413Z" fill="white"/>
<path d="M146.913 13.3908C146.056 13.3908 145.27 13.2391 144.555 12.9356C143.84 12.6212 143.216 12.1877 142.685 11.6349C142.165 11.0712 141.759 10.4101 141.466 9.65133C141.173 8.89259 141.027 8.05798 141.027 7.1475C141.027 6.23702 141.173 5.40241 141.466 4.64368C141.759 3.88494 142.165 3.22376 142.685 2.66013C143.216 2.0965 143.84 1.66293 144.555 1.35944C145.27 1.04511 146.056 0.887939 146.913 0.887939C147.736 0.887939 148.473 1.03427 149.124 1.32692C149.785 1.61958 150.338 1.99894 150.782 2.46502C151.237 2.92026 151.563 3.4026 151.758 3.91204L150.587 4.48109C150.284 3.74403 149.817 3.16414 149.189 2.74142C148.56 2.3187 147.801 2.10733 146.913 2.10733C146.024 2.10733 145.233 2.3187 144.539 2.74142C143.845 3.16414 143.303 3.75487 142.913 4.51361C142.523 5.2615 142.328 6.13947 142.328 7.1475C142.328 8.1447 142.523 9.02266 142.913 9.78139C143.303 10.5401 143.845 11.1309 144.539 11.5536C145.233 11.9655 146.024 12.1714 146.913 12.1714C147.704 12.1714 148.414 11.998 149.042 11.6511C149.682 11.3043 150.186 10.8328 150.555 10.2366C150.923 9.62965 151.107 8.93595 151.107 8.15553V7.48893L151.693 8.07424H146.913V6.93614H152.408V7.94417C152.408 8.73542 152.267 9.46706 151.985 10.1391C151.703 10.8003 151.313 11.3747 150.815 11.8625C150.316 12.3503 149.731 12.7296 149.059 13.0006C148.398 13.2607 147.682 13.3908 146.913 13.3908Z" fill="white"/>
</svg>
